HIERARCHY
ROOT Hips
{
	OFFSET 0.000000 83.214638 0.000000
	CHANNELS 6 Xposition Yposition Zposition Xrotation Yrotation Zrotation
	JOINT Pelvis
	{
		OFFSET 0.000000 0.000000 0.000000
		CHANNELS 3 Xrotation Yrotation Zrotation
		JOINT LeftUpLeg
		{
			OFFSET 8.479700 -4.795502 -0.379100
			CHANNELS 3 Xrotation Yrotation Zrotation
			JOINT LeftLeg
			{
				OFFSET 0.024144 -32.555107 0.112900
				CHANNELS 3 Xrotation Yrotation Zrotation
				JOINT LeftFoot
				{
					OFFSET -0.024144 -32.638630 -3.012600
					CHANNELS 3 Xrotation Yrotation Zrotation
					JOINT LeftToeBase
					{
						OFFSET 0.970200 -13.225400 11.864200
						CHANNELS 3 Xrotation Yrotation Zrotation
						End Site
						{
							OFFSET 0.000000 12.319262 0.000000
						}
					}
					JOINT LFootTongue
					{
						OFFSET 1.142400 -1.059800 6.665200
						CHANNELS 3 Xrotation Yrotation Zrotation
						End Site
						{
							OFFSET 0.000000 12.319262 0.000000
						}
					}
				}
				JOINT LeftPantLeg
				{
					OFFSET 0.918482 -16.533964 -2.284700
					CHANNELS 3 Xrotation Yrotation Zrotation
					End Site
					{
						OFFSET 0.350399 24.744368 0.000000
					}
				}
			}
		}
		JOINT RightUpLeg
		{
			OFFSET -8.479700 -4.795502 -0.379100
			CHANNELS 3 Xrotation Yrotation Zrotation
			JOINT RightLeg
			{
				OFFSET -0.023144 -32.555092 0.112900
				CHANNELS 3 Xrotation Yrotation Zrotation
				JOINT RightFoot
				{
					OFFSET 0.023144 -32.638641 -3.012700
					CHANNELS 3 Xrotation Yrotation Zrotation
					JOINT RightToeBase
					{
						OFFSET -0.970200 -13.225400 11.864200
						CHANNELS 3 Xrotation Yrotation Zrotation
						End Site
						{
							OFFSET 0.000000 12.319244 0.000000
						}
					}
					JOINT RFootTongue
					{
						OFFSET -1.142200 -1.059800 6.665200
						CHANNELS 3 Xrotation Yrotation Zrotation
						End Site
						{
							OFFSET 0.000000 12.319243 0.000000
						}
					}
				}
				JOINT RightPantLeg
				{
					OFFSET -0.919482 -16.533978 -2.284800
					CHANNELS 3 Xrotation Yrotation Zrotation
					End Site
					{
						OFFSET -0.350400 24.744419 0.000000
					}
				}
			}
		}
	}
	JOINT Spine
	{
		OFFSET 0.000000 7.722000 1.166200
		CHANNELS 3 Xrotation Yrotation Zrotation
		JOINT Spine1
		{
			OFFSET 0.000000 12.024101 0.248800
			CHANNELS 3 Xrotation Yrotation Zrotation
			JOINT Spine2
			{
				OFFSET 0.000000 11.502998 -0.491200
				CHANNELS 3 Xrotation Yrotation Zrotation
				JOINT Neck
				{
					OFFSET 0.000000 18.430702 -3.123100
					CHANNELS 3 Xrotation Yrotation Zrotation
					JOINT Head
					{
						OFFSET 0.000000 9.051102 1.034000
						CHANNELS 3 Xrotation Yrotation Zrotation
						JOINT HairB
						{
							OFFSET 0.208400 24.786102 24.822300
							CHANNELS 3 Xrotation Yrotation Zrotation
							End Site
							{
								OFFSET 0.000000 32.263779 0.000000
							}
						}
						JOINT HairA
						{
							OFFSET -7.081100 24.428299 23.196600
							CHANNELS 3 Xrotation Yrotation Zrotation
							End Site
							{
								OFFSET 0.000000 32.263779 0.000000
							}
						}
						JOINT Hat
						{
							OFFSET 16.728800 15.048294 -15.439601
							CHANNELS 3 Xrotation Yrotation Zrotation
							End Site
							{
								OFFSET 0.000000 32.263779 0.000000
							}
						}
					}
				}
				JOINT LeftShoulder
				{
					OFFSET 6.197800 13.665199 -4.064700
					CHANNELS 3 Xrotation Yrotation Zrotation
					JOINT LeftArm
					{
						OFFSET 7.778100 -0.187103 -1.709300
						CHANNELS 3 Xrotation Yrotation Zrotation
						JOINT LeftForeArm
						{
							OFFSET 22.049376 0.000000 0.000000
							CHANNELS 3 Xrotation Yrotation Zrotation
							JOINT LeftHand
							{
								OFFSET 23.009392 0.000000 0.000000
								CHANNELS 3 Xrotation Yrotation Zrotation
								JOINT LeftHandThumb1
								{
									OFFSET 3.507191 -2.063065 3.133727
									CHANNELS 3 Xrotation Yrotation Zrotation
									JOINT LeftHandThumb2
									{
										OFFSET 3.101337 -1.790558 1.790558
										CHANNELS 3 Xrotation Yrotation Zrotation
										JOINT LeftHandThumb3
										{
											OFFSET 3.058640 -1.765907 1.765906
											CHANNELS 3 Xrotation Yrotation Zrotation
											End Site
											{
												OFFSET -0.415260 3.926476 -0.049563
											}
										}
									}
								}
								JOINT LeftHandIndex1
								{
									OFFSET 11.334419 -0.901459 3.706815
									CHANNELS 3 Xrotation Yrotation Zrotation
									JOINT LeftHandIndex2
									{
										OFFSET 3.283112 0.000000 0.000000
										CHANNELS 3 Xrotation Yrotation Zrotation
										JOINT LeftHandIndex3
										{
											OFFSET 3.323853 0.000000 0.000000
											CHANNELS 3 Xrotation Yrotation Zrotation
											End Site
											{
												OFFSET -1.135597 3.097809 0.402452
											}
										}
									}
								}
								JOINT LeftHandMiddle1
								{
									OFFSET 11.335861 0.000000 0.000000
									CHANNELS 3 Xrotation Yrotation Zrotation
									JOINT LeftHandMiddle2
									{
										OFFSET 3.410492 0.000000 0.000000
										CHANNELS 3 Xrotation Yrotation Zrotation
										JOINT LeftHandMiddle3
										{
											OFFSET 3.312172 0.000000 0.000000
											CHANNELS 3 Xrotation Yrotation Zrotation
											End Site
											{
												OFFSET -1.150200 3.080154 0.400270
											}
										}
									}
								}
								JOINT LeftHandRing1
								{
									OFFSET 11.514786 -0.013176 -3.003090
									CHANNELS 3 Xrotation Yrotation Zrotation
									JOINT LeftHandRing2
									{
										OFFSET 3.053307 0.000000 0.000000
										CHANNELS 3 Xrotation Yrotation Zrotation
										JOINT LeftHandRing3
										{
											OFFSET 3.295807 0.000000 0.000000
											CHANNELS 3 Xrotation Yrotation Zrotation
											End Site
											{
												OFFSET -1.281006 3.013344 0.375733
											}
										}
									}
								}
								JOINT LeftHandPinky1
								{
									OFFSET 10.518692 -0.960396 -5.730441
									CHANNELS 3 Xrotation Yrotation Zrotation
									JOINT LeftHandPinky2
									{
										OFFSET 2.861649 0.000000 0.000000
										CHANNELS 3 Xrotation Yrotation Zrotation
										JOINT LeftHandPinky3
										{
											OFFSET 2.863380 0.000000 0.000000
											CHANNELS 3 Xrotation Yrotation Zrotation
											End Site
											{
												OFFSET -0.843597 2.711159 0.369971
											}
										}
									}
								}
							}
							JOINT LSleeve
							{
								OFFSET 6.676277 -0.344902 -1.011730
								CHANNELS 3 Xrotation Yrotation Zrotation
								End Site
								{
									OFFSET 0.000000 14.885353 0.000000
								}
							}
						}
					}
				}
				JOINT RightShoulder
				{
					OFFSET -6.197800 13.665199 -4.064700
					CHANNELS 3 Xrotation Yrotation Zrotation
					JOINT RightArm
					{
						OFFSET -7.778100 -0.187103 -1.709300
						CHANNELS 3 Xrotation Yrotation Zrotation
						JOINT RightForeArm
						{
							OFFSET -22.049376 0.000000 0.000000
							CHANNELS 3 Xrotation Yrotation Zrotation
							JOINT RightHand
							{
								OFFSET -23.009392 0.000000 0.000000
								CHANNELS 3 Xrotation Yrotation Zrotation
								JOINT RightHandThumb1
								{
									OFFSET -3.507191 -2.063065 3.133727
									CHANNELS 3 Xrotation Yrotation Zrotation
									JOINT RightHandThumb2
									{
										OFFSET -3.101337 -1.790558 1.790558
										CHANNELS 3 Xrotation Yrotation Zrotation
										JOINT RightHandThumb3
										{
											OFFSET -3.058640 -1.765907 1.765906
											CHANNELS 3 Xrotation Yrotation Zrotation
											End Site
											{
												OFFSET 0.415260 3.926476 -0.049563
											}
										}
									}
								}
								JOINT RightHandIndex1
								{
									OFFSET -11.334419 -0.901459 3.706815
									CHANNELS 3 Xrotation Yrotation Zrotation
									JOINT RightHandIndex2
									{
										OFFSET -3.283112 0.000000 0.000000
										CHANNELS 3 Xrotation Yrotation Zrotation
										JOINT RightHandIndex3
										{
											OFFSET -3.323853 0.000000 0.000000
											CHANNELS 3 Xrotation Yrotation Zrotation
											End Site
											{
												OFFSET 1.135597 3.097809 0.402452
											}
										}
									}
								}
								JOINT RightHandMiddle1
								{
									OFFSET -11.335861 0.000000 0.000000
									CHANNELS 3 Xrotation Yrotation Zrotation
									JOINT RightHandMiddle2
									{
										OFFSET -3.410492 0.000000 0.000000
										CHANNELS 3 Xrotation Yrotation Zrotation
										JOINT RightHandMiddle3
										{
											OFFSET -3.312172 0.000000 0.000000
											CHANNELS 3 Xrotation Yrotation Zrotation
											End Site
											{
												OFFSET 1.150200 3.080154 0.400270
											}
										}
									}
								}
								JOINT RightHandRing1
								{
									OFFSET -11.514786 -0.013176 -3.003090
									CHANNELS 3 Xrotation Yrotation Zrotation
									JOINT RightHandRing2
									{
										OFFSET -3.053307 0.000000 0.000000
										CHANNELS 3 Xrotation Yrotation Zrotation
										JOINT RightHandRing3
										{
											OFFSET -3.295807 0.000000 0.000000
											CHANNELS 3 Xrotation Yrotation Zrotation
											End Site
											{
												OFFSET 1.281006 3.013344 0.375733
											}
										}
									}
								}
								JOINT RightHandPinky1
								{
									OFFSET -10.518692 -0.960396 -5.730441
									CHANNELS 3 Xrotation Yrotation Zrotation
									JOINT RightHandPinky2
									{
										OFFSET -2.861649 0.000000 0.000000
										CHANNELS 3 Xrotation Yrotation Zrotation
										JOINT RightHandPinky3
										{
											OFFSET -2.863380 0.000000 0.000000
											CHANNELS 3 Xrotation Yrotation Zrotation
											End Site
											{
												OFFSET 0.843597 2.711159 0.369971
											}
										}
									}
								}
							}
							JOINT RSleeve
							{
								OFFSET -6.676277 -0.344902 -1.011730
								CHANNELS 3 Xrotation Yrotation Zrotation
								End Site
								{
									OFFSET 0.000000 14.885353 0.000000
								}
							}
						}
					}
				}
				JOINT Backpack
				{
					OFFSET 0.000000 -2.471497 36.677502
					CHANNELS 3 Xrotation Yrotation Zrotation
					End Site
					{
						OFFSET 0.000000 20.427315 0.000000
					}
				}
				JOINT Hood
				{
					OFFSET 0.000000 18.754097 -10.431000
					CHANNELS 3 Xrotation Yrotation Zrotation
					JOINT Hood1
					{
						OFFSET 0.000000 -5.011002 -7.685901
						CHANNELS 3 Xrotation Yrotation Zrotation
						End Site
						{
							OFFSET 0.000000 9.175140 0.000000
						}
					}
				}
				JOINT LHoodieString
				{
					OFFSET 5.250500 16.397697 3.089900
					CHANNELS 3 Xrotation Yrotation Zrotation
					JOINT LHoodieString1
					{
						OFFSET 0.257700 -6.364304 3.694600
						CHANNELS 3 Xrotation Yrotation Zrotation
						JOINT LHoodieString2
						{
							OFFSET 0.000000 -9.643799 2.679100
							CHANNELS 3 Xrotation Yrotation Zrotation
							End Site
							{
								OFFSET 0.000000 10.009018 0.000000
							}
						}
					}
				}
				JOINT RHoodieString
				{
					OFFSET -5.250500 16.397697 3.089900
					CHANNELS 3 Xrotation Yrotation Zrotation
					JOINT RHoodieString1
					{
						OFFSET -0.257700 -6.364304 3.694600
						CHANNELS 3 Xrotation Yrotation Zrotation
						JOINT RHoodieString2
						{
							OFFSET 0.000000 -9.643799 2.679100
							CHANNELS 3 Xrotation Yrotation Zrotation
							End Site
							{
								OFFSET 0.000000 10.009018 0.000000
							}
						}
					}
				}
			}
			JOINT LBackpack_Strap
			{
				OFFSET 15.223200 -7.719803 -6.610900
				CHANNELS 3 Xrotation Yrotation Zrotation
				End Site
				{
					OFFSET 0.000000 16.040596 0.000000
				}
			}
			JOINT RBackpack_Strap
			{
				OFFSET -15.223000 -7.719803 -6.610900
				CHANNELS 3 Xrotation Yrotation Zrotation
				End Site
				{
					OFFSET 0.000000 16.040596 0.000000
				}
			}
		}
	}
	JOINT BoyFacialAnim_Joint
	{
		OFFSET 1.000000 -82.208099 -1.550900
		CHANNELS 3 Xrotation Yrotation Zrotation
		End Site
		{
			OFFSET 0.000000 30.012791 0.000000
		}
	}
}
MOTION
Frames: 4
Frame Time: 0.033333
-0.175748 81.805412 0.980367 -3.895308 -6.341888 -2.104459 0.000000 0.000000 -0.000000 -4.799893 1.858286 10.119492 20.147185 8.994535 -6.599123 -8.707684 20.696501 -2.467192 -0.000000 -0.000000 0.000000 -0.000000 -0.000000 -0.000000 0.000000 -0.000000 -0.000000 -5.365217 1.980100 -0.437385 18.121253 -9.218635 -0.676622 -7.944187 -6.414312 2.690359 0.000000 0.000000 -0.000000 0.000000 0.000000 -0.000000 0.000000 0.000000 0.000000 7.969689 2.134705 2.070726 -0.160744 0.299257 -1.144697 -0.155813 0.284067 -1.149824 -0.329488 0.360289 0.668018 3.521242 2.676856 0.478100 0.000000 -0.000000 0.000000 0.000000 -0.000000 0.000000 0.000000 -0.000000 0.000000 0.311660 -7.670489 2.031486 45.709135 -37.863601 -51.071787 -0.000003 -50.865891 0.000000 -6.663316 -0.575715 -0.994627 20.800277 8.231006 11.147906 -15.483901 19.389768 0.251310 -0.000002 -0.000001 0.000003 0.929429 3.459820 -30.065021 0.043586 0.775161 -6.437120 -0.000001 -0.000003 -0.000001 1.030660 3.628744 -31.702415 0.146193 1.414149 -11.803843 -0.000003 0.000000 0.000002 1.259284 3.974343 -35.149444 0.288776 1.976938 -16.620195 -0.000001 -0.000000 0.000001 4.244035 7.552678 -39.879125 0.385023 -1.789086 -19.646206 0.000001 0.000000 0.000005 0.000001 0.000001 0.000001 1.779456 19.714124 1.592780 49.990301 27.060118 48.315003 0.000049 70.344070 -0.000034 -14.501371 -4.049003 5.425485 -1.973906 -1.390145 -10.836562 10.943147 -28.103997 7.118746 -0.000001 -0.000000 0.000000 0.926555 -3.472993 29.867451 0.341640 -2.156743 18.000395 -0.000004 -0.000001 -0.000000 0.618553 -2.871688 24.306251 0.394429 -2.312797 19.354364 0.000004 0.000001 -0.000000 0.621454 -2.878087 24.364060 0.403889 -2.339526 19.587190 -0.000001 0.000003 -0.000001 0.938603 -3.493826 30.065612 0.369201 -2.239705 18.718774 0.000001 0.000001 0.000007 -0.000002 -0.000002 0.000001 -0.000000 0.000000 0.000000 -0.000000 0.000000 0.000000 -0.000000 0.000000 0.000000 -0.000000 0.000000 0.000000 -0.000000 0.000000 0.000000 -0.000001 0.000001 0.000000 -0.000000 0.000000 0.000000 -0.000000 0.000000 0.000000 -0.000001 0.000001 0.000000 0.000000 0.000001 0.000000 0.000000 0.000001 0.000000 0.000000 0.000000 -0.000000 
-0.166774 81.767326 1.196000 -3.621621 -6.104209 -2.033143 -0.000000 -0.000000 -0.000000 -4.992309 2.748446 9.672960 19.882443 8.954894 -5.319771 -8.435901 20.478360 -3.858831 -0.000000 -0.000000 -0.000000 -0.000000 -0.000000 -0.000000 0.000001 -0.000000 0.000000 -5.848079 0.781624 -0.527919 18.903062 -8.837356 -0.793730 -8.558703 -5.814641 2.087680 0.000000 0.000000 -0.000000 0.000000 0.000000 -0.000000 0.000000 0.000000 0.000001 7.406974 1.952766 1.997725 -0.034292 0.272689 -1.059786 -0.029773 0.258754 -1.063671 -0.614885 0.378863 0.718413 3.083389 2.987404 0.596383 0.000000 -0.000000 0.000000 0.000000 -0.000000 0.000000 0.000000 -0.000000 0.000000 0.307503 -7.614765 1.446504 43.659201 -35.951131 -52.252426 -0.000020 -49.806095 -0.000006 -8.221915 0.382087 -0.749299 20.800286 8.231020 11.147922 -15.483901 19.389766 0.251312 0.000002 -0.000001 0.000000 0.887107 3.385796 -29.356180 0.047582 0.809697 -6.725315 0.000000 0.000000 -0.000005 1.007658 3.591315 -31.336928 0.158794 1.473136 -12.304059 -0.000001 0.000001 0.000000 1.263844 3.980825 -35.215366 0.318567 2.074018 -17.462663 0.000003 -0.000001 -0.000004 4.302717 7.572824 -40.324894 0.431695 -1.662321 -20.764123 -0.000002 0.000000 -0.000002 -0.000002 0.000000 0.000001 1.816088 19.618883 1.621093 48.089572 26.067089 48.947434 -0.000034 69.337922 0.000033 -16.222099 -3.854263 3.447199 -1.973905 -1.390149 -10.836562 10.943140 -28.103997 7.118746 0.000001 -0.000001 0.000001 0.863976 -3.361868 28.817685 0.336269 -2.140140 17.856995 -0.000001 0.000003 0.000002 0.586979 -2.800808 23.668042 0.393167 -2.309177 19.322658 -0.000002 -0.000002 0.000001 0.602920 -2.836857 23.992332 0.414946 -2.370307 19.856043 0.000001 -0.000004 0.000002 0.926309 -3.472567 29.863517 0.395247 -2.315105 19.374274 0.000001 0.000001 0.000000 0.000002 -0.000002 0.000001 -0.000000 0.000000 0.000000 -0.000000 0.000000 0.000000 -0.000000 0.000000 0.000000 -0.000000 0.000000 0.000000 -0.000000 0.000000 0.000000 -0.000000 0.000000 0.000000 -0.000000 0.000000 0.000000 -0.000000 0.000000 0.000000 -0.000000 0.000000 0.000000 -0.000000 0.000000 0.000000 -0.000000 0.000000 0.000000 -0.000000 -0.000000 -0.000000 
-0.133221 81.706734 1.427670 -3.383261 -5.745235 -1.869158 0.000000 -0.000000 0.000000 -5.280305 3.414248 9.143217 19.948326 8.952234 -4.273588 -8.428976 19.865131 -4.750987 0.000000 0.000002 0.000000 0.000000 0.000002 -0.000000 -0.000000 0.000002 0.000000 -6.394251 -0.427869 -0.849281 19.977975 -7.943551 -0.648059 -9.354448 -5.808979 1.250409 0.000000 -0.000001 -0.000000 0.000000 -0.000001 -0.000000 0.000001 -0.000001 -0.000000 6.816299 1.674190 1.902430 0.097379 0.233541 -0.999045 0.101175 0.220765 -1.001633 -0.895631 0.388951 0.756139 2.727042 3.261515 0.638713 0.000000 -0.000000 -0.000000 0.000000 -0.000000 -0.000000 0.000000 -0.000000 -0.000000 0.302029 -7.549569 0.888229 41.717474 -34.206882 -53.151685 -0.000005 -48.861599 0.000001 -7.916772 1.238454 -0.366528 20.800277 8.231017 11.147915 -15.483901 19.389768 0.251310 0.000001 0.000000 0.000002 0.848080 3.315599 -28.688697 0.049230 0.823496 -6.840450 -0.000001 -0.000001 -0.000004 0.983742 3.551832 -30.953280 0.166035 1.505948 -12.582633 -0.000001 -0.000000 0.000002 1.258670 3.973518 -35.140924 0.338106 2.135112 -17.994965 -0.000001 0.000000 0.000001 4.326183 7.580729 -40.502991 0.464425 -1.577720 -21.514691 -0.000001 0.000001 -0.000000 0.000003 0.000000 0.000001 1.850760 19.518072 1.586414 46.254605 25.205707 49.390471 0.000024 68.397487 -0.000016 -16.883215 -3.917914 1.742232 -1.973917 -1.390153 -10.836569 10.943136 -28.103995 7.118745 -0.000002 -0.000000 0.000001 0.809253 -3.260646 27.870623 0.327396 -2.112382 17.617609 -0.000006 0.000001 0.000002 0.557169 -2.731870 23.050565 0.387113 -2.291839 19.171658 0.000002 -0.000001 0.000001 0.582032 -2.789522 23.566914 0.418343 -2.379728 19.938350 -0.000000 0.000001 0.000002 0.905983 -3.436980 29.526115 0.411066 -2.359578 19.762198 -0.000002 -0.000000 0.000000 0.000001 0.000000 -0.000002 0.000000 0.000000 -0.000000 0.000000 0.000000 -0.000000 0.000000 0.000000 -0.000000 0.000000 0.000000 -0.000000 0.000000 0.000000 -0.000000 0.000000 -0.000000 0.000000 0.000000 0.000000 -0.000000 0.000000 0.000000 -0.000000 0.000000 -0.000000 0.000000 -0.000000 -0.000000 0.000000 -0.000000 -0.000000 0.000000 0.000000 -0.000000 0.000000 
-0.067747 81.597504 1.641384 -3.346214 -5.487111 -1.767368 -0.000000 0.000000 -0.000000 -5.680979 3.844092 8.682396 20.739687 8.992865 -3.472012 -8.858661 19.258943 -5.163992 -0.000000 0.000000 0.000000 -0.000000 0.000000 0.000000 -0.000001 -0.000001 -0.000000 -6.920488 -1.273293 -1.201358 21.376715 -6.894112 -0.268365 -10.287155 -6.254768 0.229821 -0.000000 -0.000002 -0.000000 -0.000000 -0.000002 -0.000000 0.000000 0.000000 -0.000000 6.377441 1.347442 1.804251 0.206053 0.188652 -0.969441 0.208998 0.176616 -0.971005 -1.173423 0.390616 0.781844 2.419783 3.500927 0.500187 0.000000 -0.000000 0.000000 0.000000 -0.000000 0.000000 0.000000 -0.000000 0.000000 0.296923 -7.469680 0.375613 39.844844 -32.627797 -53.813022 -0.000012 -48.067651 -0.000003 -5.825465 1.759816 0.121944 20.800294 8.230989 11.147909 -15.483899 19.389768 0.251310 -0.000001 0.000001 0.000002 0.828171 3.278954 -28.342102 0.049538 0.826140 -6.862573 -0.000002 0.000000 -0.000002 0.972584 3.533191 -30.772844 0.168477 1.516797 -12.674784 0.000002 -0.000002 -0.000000 1.254834 3.968061 -35.085517 0.345290 2.157064 -18.186584 -0.000000 0.000001 -0.000000 4.330699 7.582225 -40.537203 0.477921 -1.543754 -21.817323 -0.000001 0.000004 0.000000 -0.000002 -0.000001 -0.000001 1.881852 19.412048 1.492313 44.480927 24.464693 49.685231 -0.000051 67.542853 0.000056 -16.463327 -4.152067 0.469810 -1.973902 -1.390148 -10.836562 10.943138 -28.103993 7.118745 -0.000004 0.000000 0.000001 0.776161 -3.197362 27.282960 0.319544 -2.087566 17.403672 -0.000003 0.000001 0.000002 0.537958 -2.686368 22.644442 0.380347 -2.272312 19.002010 -0.000002 -0.000003 -0.000004 0.566736 -2.754236 23.250546 0.416167 -2.373707 19.885715 0.000001 0.000001 0.000001 0.887988 -3.405074 29.224621 0.415410 -2.371662 19.867767 0.000001 0.000000 -0.000001 0.000000 -0.000001 -0.000000 0.000000 0.000000 -0.000000 0.000000 0.000000 -0.000000 0.000000 0.000000 -0.000000 0.000000 0.000000 -0.000000 0.000000 0.000000 0.000000 -0.000000 0.000000 -0.000000 0.000000 0.000000 -0.000000 0.000000 0.000000 0.000000 -0.000000 0.000000 -0.000000 -0.000000 0.000000 -0.000000 -0.000000 0.000000 -0.000000 -0.000000 0.000000 -0.000000 
